<svg width="288" height="35" viewBox="0 0 288 35" fill="inherit" xmlns="http://www.w3.org/2000/svg">
<path fill-rule="evenodd" clip-rule="evenodd" d="M203.387 0.181641V7.62259H175.92V13.9612H198.886V21.4021H175.92V27.7407H203.387V35.1816H168.479V0.27351H203.387V0.181641ZM23.5187 0.181641L46.3927 35.0898H37.7575L34.083 29.4861H18.7418L23.6105 22.137H29.3061L23.5187 13.3181L9.09611 35.0898H0.460938L23.5187 0.181641ZM267.6 0.181641L290.658 35.0898H282.022L267.6 13.3181L261.812 22.137H267.508L272.377 29.4861H257.036L253.361 35.0898H244.726L267.6 0.181641ZM73.3087 1.10028C82.1276 1.10028 87.3638 5.60159 87.3638 13.0425C87.3638 18.4625 84.6079 22.3208 79.6473 23.9743L87.5475 35.0898H78.5449L71.2877 24.9848H58.0593V35.0898H50.8021V1.10028H73.3087V1.10028ZM215.789 1.10028L229.936 22.2289L244.267 1.10028H252.994L229.936 35.0898L207.062 1.10028H215.789V1.10028ZM105.92 1.10028V16.3496L125.487 1.10028H137.246L119.424 15.0635L137.246 35.0898H127.508L113.637 19.5648L105.92 25.6278V35.0898H98.663V1.10028H105.92V1.10028ZM153.781 1.10028V35.0898H146.432V1.10028H153.781V1.10028ZM73.3087 8.44936H58.1512V17.8194H73.3087C79.831 17.8194 80.1066 14.9717 80.1066 13.3181V13.0425C80.1066 11.2971 79.9228 8.44936 73.3087 8.44936Z" fill="white"/>
</svg>
