<svg width="500" height="500" viewBox="0 0 500 500" fill="none" xmlns="http://www.w3.org/2000/svg">
<rect width="500" height="500" fill="white"/>
<path d="M157 378V382H161H253.5C274.016 382 291.04 378.955 304.347 372.611C317.53 366.324 327.419 357.686 333.726 346.603C339.933 335.698 343 323.464 343 310C343 295.979 340.229 283.839 334.473 273.765C328.863 263.949 321.808 256.266 313.261 250.868C308.343 247.762 303.378 245.438 298.37 243.938C302.455 242.184 306.36 240.067 310.083 237.585C317.004 233.029 322.522 226.853 326.644 219.152C330.968 211.231 333 201.44 333 190C333 176.873 330.018 164.827 324.004 153.946C317.92 142.854 308.688 134.119 296.495 127.714C284.164 121.152 268.759 118 250.5 118H161H157V122V378ZM299.438 288.047L299.443 288.055L299.448 288.064C303.485 294.766 305.5 302.051 305.5 310C305.5 320.085 301.711 328.617 293.914 335.809C286.539 342.606 273.436 346.5 253.5 346.5H196V265.5H255C265.625 265.5 274.601 267.638 282.07 271.753L282.083 271.761L282.097 271.768C289.679 275.869 295.419 281.297 299.438 288.047ZM273.009 225.399L273.001 225.403L272.993 225.406C266.102 228.776 258.297 230.5 249.5 230.5H196V153.5H250.5C266.984 153.5 278.14 157.35 284.907 164.188L284.914 164.196L284.922 164.203C291.992 171.274 295.5 179.792 295.5 190C295.5 198.301 293.436 205.334 289.435 211.262L289.425 211.276L289.415 211.291C285.417 217.327 279.982 222.027 273.009 225.399Z" stroke="black" stroke-width="8"/>
</svg>
