<svg width="178" height="27" viewBox="0 0 178 27" fill="none" xmlns="http://www.w3.org/2000/svg">
<path d="M6.0948 1.38166C8.10547 1.38166 9.83013 1.74566 11.2688 2.47366C12.7075 3.20166 13.8081 4.25033 14.5708 5.61966C15.3335 6.989 15.7148 8.61833 15.7148 10.5077C15.7148 12.3797 15.3335 14.0003 14.5708 15.3697C13.8081 16.7217 12.7075 17.7617 11.2688 18.4897C9.83013 19.2003 8.10547 19.5557 6.0948 19.5557H0.712799V1.38166H6.0948ZM6.0948 18.0477C8.62547 18.0477 10.5495 17.389 11.8668 16.0717C13.2015 14.737 13.8688 12.8823 13.8688 10.5077C13.8688 8.11566 13.2015 6.25233 11.8668 4.91766C10.5495 3.56566 8.62547 2.88966 6.0948 2.88966H2.5328V18.0477H6.0948Z" fill="white"/>
<path d="M20.6402 7.88166C21.0389 6.99766 21.6456 6.313 22.4602 5.82766C23.2922 5.34233 24.3062 5.09966 25.5022 5.09966V6.99766H25.0082C23.6909 6.99766 22.6336 7.353 21.8362 8.06366C21.0389 8.77433 20.6402 9.96166 20.6402 11.6257V19.5557H18.8202V5.35966H20.6402V7.88166Z" fill="white"/>
<path d="M28.3021 19.6857C27.9208 19.6857 27.6001 19.5557 27.3401 19.2957C27.0975 19.0357 26.9761 18.715 26.9761 18.3337C26.9761 17.9523 27.0975 17.6403 27.3401 17.3977C27.6001 17.1377 27.9208 17.0077 28.3021 17.0077C28.6661 17.0077 28.9695 17.1377 29.2121 17.3977C29.4721 17.6403 29.6021 17.9523 29.6021 18.3337C29.6021 18.715 29.4721 19.0357 29.2121 19.2957C28.9695 19.5557 28.6661 19.6857 28.3021 19.6857Z" fill="white"/>
<path d="M44.7296 1.38166C46.7402 1.38166 48.4649 1.74566 49.9036 2.47366C51.3422 3.20166 52.4429 4.25033 53.2056 5.61966C53.9682 6.989 54.3496 8.61833 54.3496 10.5077C54.3496 12.3797 53.9682 14.0003 53.2056 15.3697C52.4429 16.7217 51.3422 17.7617 49.9036 18.4897C48.4649 19.2003 46.7402 19.5557 44.7296 19.5557H39.3476V1.38166H44.7296ZM44.7296 18.0477C47.2602 18.0477 49.1842 17.389 50.5016 16.0717C51.8362 14.737 52.5036 12.8823 52.5036 10.5077C52.5036 8.11566 51.8362 6.25233 50.5016 4.91766C49.1842 3.56566 47.2602 2.88966 44.7296 2.88966H41.1676V18.0477H44.7296Z" fill="white"/>
<path d="M63.669 19.7637C62.3343 19.7637 61.1297 19.469 60.055 18.8797C58.9977 18.273 58.157 17.4237 57.533 16.3317C56.9263 15.2223 56.623 13.931 56.623 12.4577C56.623 10.9843 56.935 9.70166 57.559 8.60966C58.183 7.50033 59.0323 6.651 60.107 6.06166C61.1816 5.455 62.3863 5.15166 63.721 5.15166C65.0557 5.15166 66.2603 5.455 67.335 6.06166C68.427 6.651 69.2763 7.50033 69.883 8.60966C70.507 9.70166 70.819 10.9843 70.819 12.4577C70.819 13.9137 70.507 15.1963 69.883 16.3057C69.259 17.415 68.401 18.273 67.309 18.8797C66.217 19.469 65.0037 19.7637 63.669 19.7637ZM63.669 18.1777C64.605 18.1777 65.4716 17.9697 66.269 17.5537C67.0663 17.1203 67.7077 16.479 68.193 15.6297C68.6957 14.763 68.947 13.7057 68.947 12.4577C68.947 11.2097 68.7043 10.161 68.219 9.31166C67.7337 8.445 67.0923 7.80366 66.295 7.38766C65.4976 6.95433 64.631 6.73766 63.695 6.73766C62.759 6.73766 61.8923 6.95433 61.095 7.38766C60.2977 7.80366 59.6563 8.445 59.171 9.31166C58.703 10.161 58.469 11.2097 58.469 12.4577C58.469 13.7057 58.703 14.763 59.171 15.6297C59.6563 16.479 60.289 17.1203 61.069 17.5537C61.8663 17.9697 62.733 18.1777 63.669 18.1777Z" fill="white"/>
<path d="M85.5866 5.35966L77.1626 26.2377H75.2646L78.0206 19.4777L72.1966 5.35966H74.1986L79.0346 17.4757L83.7146 5.35966H85.5866Z" fill="white"/>
<path d="M89.6246 0.315663V19.5557H87.8046V0.315663H89.6246Z" fill="white"/>
<path d="M106.34 11.7297C106.34 12.3537 106.323 12.8303 106.288 13.1597H94.51C94.562 14.2343 94.822 15.153 95.29 15.9157C95.758 16.6783 96.3733 17.259 97.136 17.6577C97.8987 18.039 98.7307 18.2297 99.632 18.2297C100.811 18.2297 101.799 17.9437 102.596 17.3717C103.411 16.7997 103.948 16.0283 104.208 15.0577H106.132C105.785 16.4443 105.04 17.5797 103.896 18.4637C102.769 19.3303 101.348 19.7637 99.632 19.7637C98.2973 19.7637 97.1013 19.469 96.044 18.8797C94.9867 18.273 94.1547 17.4237 93.548 16.3317C92.9587 15.2223 92.664 13.931 92.664 12.4577C92.664 10.9843 92.9587 9.693 93.548 8.58366C94.1373 7.47433 94.9607 6.625 96.018 6.03566C97.0753 5.44633 98.28 5.15166 99.632 5.15166C100.984 5.15166 102.163 5.44633 103.168 6.03566C104.191 6.625 104.971 7.42233 105.508 8.42766C106.063 9.41566 106.34 10.5163 106.34 11.7297ZM104.494 11.6777C104.511 10.6203 104.295 9.719 103.844 8.97366C103.411 8.22833 102.813 7.665 102.05 7.28366C101.287 6.90233 100.455 6.71166 99.554 6.71166C98.202 6.71166 97.0493 7.145 96.096 8.01166C95.1427 8.87833 94.614 10.1003 94.51 11.6777H104.494Z" fill="white"/>
<path d="M127.927 6.60766C127.927 8.16766 127.415 9.42433 126.393 10.3777C125.37 11.331 123.836 11.8077 121.791 11.8077H118.125V19.5557H116.305V1.38166H121.791C123.819 1.38166 125.344 1.85833 126.367 2.81166C127.407 3.765 127.927 5.03033 127.927 6.60766ZM121.791 10.2477C124.633 10.2477 126.055 9.03433 126.055 6.60766C126.055 5.39433 125.717 4.47566 125.041 3.85166C124.365 3.22766 123.281 2.91566 121.791 2.91566H118.125V10.2477H121.791Z" fill="white"/>
<path d="M132.55 7.88166C132.949 6.99766 133.556 6.313 134.37 5.82766C135.202 5.34233 136.216 5.09966 137.412 5.09966V6.99766H136.918C135.601 6.99766 134.544 7.353 133.746 8.06366C132.949 8.77433 132.55 9.96166 132.55 11.6257V19.5557H130.73V5.35966H132.55V7.88166Z" fill="white"/>
<path d="M152.198 5.35966V19.5557H150.378V17.0597C149.962 17.9437 149.321 18.6197 148.454 19.0877C147.588 19.5557 146.617 19.7897 145.542 19.7897C143.844 19.7897 142.457 19.2697 141.382 18.2297C140.308 17.1723 139.77 15.647 139.77 13.6537V5.35966H141.564V13.4457C141.564 14.9883 141.946 16.167 142.708 16.9817C143.488 17.7963 144.546 18.2037 145.88 18.2037C147.25 18.2037 148.342 17.7703 149.156 16.9037C149.971 16.037 150.378 14.763 150.378 13.0817V5.35966H152.198Z" fill="white"/>
<path d="M157.013 2.68166C156.649 2.68166 156.337 2.55166 156.077 2.29166C155.817 2.03166 155.687 1.711 155.687 1.32966C155.687 0.948329 155.817 0.636329 156.077 0.393662C156.337 0.133662 156.649 0.00366211 157.013 0.00366211C157.377 0.00366211 157.689 0.133662 157.949 0.393662C158.209 0.636329 158.339 0.948329 158.339 1.32966C158.339 1.711 158.209 2.03166 157.949 2.29166C157.689 2.55166 157.377 2.68166 157.013 2.68166ZM157.923 5.35966V19.5557H156.103V5.35966H157.923Z" fill="white"/>
<path d="M164.161 6.89366V15.7077C164.161 16.5743 164.325 17.1723 164.655 17.5017C164.984 17.831 165.565 17.9957 166.397 17.9957H168.061V19.5557H166.111C164.828 19.5557 163.875 19.261 163.251 18.6717C162.627 18.065 162.315 17.077 162.315 15.7077V6.89366H160.339V5.35966H162.315V1.79766H164.161V5.35966H168.061V6.89366H164.161Z" fill="white"/>
<path d="M173.178 6.89366V15.7077C173.178 16.5743 173.343 17.1723 173.672 17.5017C174.002 17.831 174.582 17.9957 175.414 17.9957H177.078V19.5557H175.128C173.846 19.5557 172.892 19.261 172.268 18.6717C171.644 18.065 171.332 17.077 171.332 15.7077V6.89366H169.356V5.35966H171.332V1.79766H173.178V5.35966H177.078V6.89366H173.178Z" fill="white"/>
</svg>
