<svg width="24" height="24" viewBox="0 0 24 24" fill="none" xmlns="http://www.w3.org/2000/svg">
<path fill-rule="evenodd" clip-rule="evenodd" d="M11.9991 2.39844C6.56091 2.39844 2.15625 6.8031 2.15625 12.2413C2.15625 16.5967 4.97376 20.2755 8.88628 21.5796C9.37842 21.6658 9.56297 21.3705 9.56297 21.1121C9.56297 20.8783 9.55067 20.1032 9.55067 19.2789C7.07766 19.7341 6.43788 18.676 6.24102 18.1223C6.13029 17.8394 5.65045 16.9658 5.23213 16.732C4.88763 16.5475 4.39549 16.0923 5.21983 16.08C5.99495 16.0677 6.54861 16.7936 6.73316 17.0889C7.61901 18.5776 9.03392 18.1593 9.59988 17.9009C9.68601 17.2611 9.94438 16.8305 10.2274 16.5844C8.03733 16.3383 5.74888 15.4894 5.74888 11.7245C5.74888 10.6541 6.13029 9.76825 6.75777 9.07925C6.65934 8.83318 6.31484 7.82429 6.8562 6.47091C6.8562 6.47091 7.68053 6.21253 9.56297 7.4798C10.3504 7.25833 11.187 7.1476 12.0237 7.1476C12.8603 7.1476 13.697 7.25833 14.4844 7.4798C16.3668 6.20023 17.1912 6.47091 17.1912 6.47091C17.7325 7.82429 17.388 8.83318 17.2896 9.07925C17.9171 9.76825 18.2985 10.6418 18.2985 11.7245C18.2985 15.5017 15.9977 16.3383 13.8077 16.5844C14.1645 16.892 14.4721 17.4826 14.4721 18.4053C14.4721 19.7218 14.4598 20.7799 14.4598 21.1121C14.4598 21.3705 14.6443 21.6781 15.1365 21.5796C17.0904 20.92 18.7884 19.6642 19.9912 17.989C21.1941 16.3138 21.8414 14.3036 21.8419 12.2413C21.8419 6.8031 17.4372 2.39844 11.9991 2.39844Z" fill="black"/>
</svg>
