<svg width="24" height="24" viewBox="0 0 24 24" fill="none" xmlns="http://www.w3.org/2000/svg">
<path d="M17.5984 2.39844H6.39844C4.18964 2.39844 2.39844 4.18964 2.39844 6.39844V17.5984C2.39844 19.8072 4.18964 21.5984 6.39844 21.5984H17.5984C19.808 21.5984 21.5984 19.8072 21.5984 17.5984V6.39844C21.5984 4.18964 19.808 2.39844 17.5984 2.39844ZM8.79844 17.5984H6.39844V8.79844H8.79844V17.5984ZM7.59844 7.78404C6.82564 7.78404 6.19844 7.15204 6.19844 6.37284C6.19844 5.59364 6.82564 4.96164 7.59844 4.96164C8.37124 4.96164 8.99844 5.59364 8.99844 6.37284C8.99844 7.15204 8.37204 7.78404 7.59844 7.78404ZM18.3984 17.5984H15.9984V13.1152C15.9984 10.4208 12.7984 10.6248 12.7984 13.1152V17.5984H10.3984V8.79844H12.7984V10.2104C13.9152 8.14164 18.3984 7.98884 18.3984 12.1912V17.5984Z" fill="black"/>
</svg>
