<svg width="24" height="24" viewBox="0 0 24 24" fill="none" xmlns="http://www.w3.org/2000/svg">
<path d="M12.0004 2.39844C11.4591 2.39843 10.9174 2.53781 10.4343 2.8193V2.82133L2.66851 7.35171C2.03312 7.72219 1.64062 8.40492 1.64062 9.14039V19.5265C1.64062 20.6589 2.58019 21.5984 3.71258 21.5984H20.2882C21.4206 21.5984 22.3602 20.6589 22.3602 19.5265V9.14039C22.3602 8.40591 21.9675 7.72208 21.3323 7.35171L13.5665 2.82133C13.0836 2.53949 12.5417 2.39844 12.0004 2.39844ZM12.0004 4.46837C12.1805 4.46846 12.361 4.51578 12.5224 4.61001L20.2882 9.14039V9.14242V9.19098L13.0951 13.6667C12.4248 14.0842 11.576 14.0842 10.9058 13.6667L3.71258 9.19098V9.14039L11.4784 4.61001C11.6407 4.51545 11.8203 4.46829 12.0004 4.46837Z" fill="black"/>
</svg>
